<svg width="32" height="32" viewBox="0 0 32 32" fill="none" xmlns="http://www.w3.org/2000/svg">
<g clip-path="url(#clip0_1602_3016)">
<path d="M32 16C32 7.16344 24.8366 0 16 0C7.16344 0 0 7.16344 0 16C0 24.8366 7.16344 32 16 32C24.8366 32 32 24.8366 32 16Z" fill="white"/>
<path d="M7.38477 24.5355V20.6973H7.80095L9.54569 23.9251L11.2813 20.6973H11.7036V24.5328H11.272V21.5715L9.69061 24.5355H9.39775L7.81941 21.5715V24.5355H7.38477Z" fill="#316DC2"/>
<path d="M18.6365 24.6156C18.3261 24.6156 18.0467 24.5712 17.798 24.4823C17.5513 24.3917 17.3469 24.2638 17.1845 24.0985C17.0242 23.9333 16.9194 23.7369 16.8701 23.5095L17.3325 23.4428C17.4065 23.6916 17.5627 23.8871 17.8011 24.0292C18.0395 24.1696 18.3241 24.2398 18.655 24.2398C18.8728 24.2398 19.068 24.2104 19.2406 24.1519C19.4133 24.0914 19.5489 24.0061 19.6476 23.8959C19.7462 23.7858 19.7955 23.6552 19.7955 23.5041C19.7955 23.4046 19.775 23.3202 19.7339 23.2509C19.6928 23.1799 19.6383 23.1212 19.5705 23.075C19.5027 23.0288 19.4287 22.9906 19.3486 22.9604C19.2684 22.9284 19.1903 22.9026 19.1143 22.8831L17.9891 22.5925C17.8534 22.5588 17.7281 22.5162 17.613 22.4646C17.4979 22.4113 17.3973 22.3482 17.3109 22.2754C17.2267 22.2007 17.1609 22.1136 17.1136 22.0141C17.0664 21.9146 17.0427 21.8009 17.0427 21.673C17.0427 21.4562 17.1085 21.2687 17.24 21.1106C17.3715 20.9524 17.5513 20.8307 17.7795 20.7454C18.0076 20.6601 18.2676 20.6184 18.5594 20.6202C18.8553 20.6202 19.1194 20.6655 19.3517 20.7561C19.5859 20.8467 19.7791 20.9764 19.9312 21.1452C20.0833 21.3123 20.184 21.5104 20.2333 21.7396L19.7585 21.8143C19.7277 21.6472 19.6568 21.5024 19.5459 21.3798C19.4349 21.2572 19.2931 21.163 19.1205 21.0973C18.9499 21.0297 18.7618 20.9951 18.5563 20.9933C18.3569 20.9933 18.1792 21.0226 18.023 21.0813C17.8689 21.1381 17.7466 21.2163 17.6561 21.3158C17.5657 21.4153 17.5205 21.529 17.5205 21.657C17.5205 21.7867 17.5616 21.8906 17.6438 21.9688C17.7281 22.0471 17.8309 22.1084 17.9521 22.1528C18.0754 22.1972 18.1946 22.2336 18.3097 22.262L19.179 22.4832C19.2694 22.5046 19.3753 22.5357 19.4965 22.5765C19.6198 22.6157 19.739 22.6725 19.8541 22.7471C19.9712 22.82 20.0678 22.916 20.1439 23.035C20.2199 23.1541 20.2579 23.3051 20.2579 23.4882C20.2579 23.6658 20.2168 23.8248 20.1346 23.9653C20.0545 24.1056 19.9405 24.2238 19.7925 24.3197C19.6465 24.4157 19.4749 24.4885 19.2776 24.5383C19.0824 24.5898 18.8687 24.6156 18.6365 24.6156Z" fill="#316DC2"/>
<path fill-rule="evenodd" clip-rule="evenodd" d="M14.1589 20.6973L12.6299 24.5355H13.1015L13.4723 23.6052H15.4442L15.8173 24.5355H16.289L14.76 20.6973H14.1589ZM15.2967 23.2374L14.4551 21.1394L13.6189 23.2374H13.3111V23.6052H13.4723L13.6189 23.2374H15.2967Z" fill="#316DC2"/>
<path d="M13.3115 23.2373V23.6051H13.4727L13.6193 23.2373H13.3115Z" fill="#316DC2"/>
<path fill-rule="evenodd" clip-rule="evenodd" d="M22.4851 20.6973L20.9561 24.5355H21.4277L21.7985 23.6052H23.7704L24.1436 24.5355H24.6152L23.0862 20.6973H22.4851ZM23.6229 23.2374L22.7813 21.1394L21.9451 23.2374H21.6373V23.6052H21.7985L21.9451 23.2374H23.6229Z" fill="#316DC2"/>
<path d="M21.6377 23.2373V23.6051H21.7989L21.9454 23.2373H21.6377Z" fill="#316DC2"/>
<path d="M10.9614 10.7546C10.6404 10.9869 10.4522 11.4789 10.8069 12.0671C11.1616 12.6553 16.2288 16.6257 16.4146 16.736C16.6003 16.8463 16.7862 16.8647 17.259 16.4786C17.732 16.0926 21.6837 13.0769 21.7856 12.9862C21.9479 12.8419 21.9883 12.4899 21.7856 12.3244C21.7856 12.3244 16.9983 15.9639 16.8415 16.111C16.6849 16.2581 16.441 16.0191 16.4868 15.7067C16.5328 15.3941 16.5666 15.3573 17.1747 14.8794C17.7827 14.4015 21.2302 11.7472 21.3866 11.6298C21.5638 11.4968 21.568 11.262 21.2779 11.0543C20.8746 10.7656 16.5155 7.61635 16.3697 7.50607C16.2235 7.39573 16.0211 7.29549 15.7171 7.5161C15.4131 7.73666 11.5512 10.3277 10.9614 10.7546Z" fill="#316DC2"/>
<path d="M16.4142 17.123C16.2923 17.0506 14.069 15.3165 12.4541 13.9663V16.7815C12.4529 18.8365 18.1522 19.9345 20.0403 17.4083V14.7176C18.8804 15.6079 17.5236 16.6494 17.2587 16.8657C16.7859 17.2517 16.6 17.2333 16.4142 17.123Z" fill="#316DC2"/>
<path d="M18.8266 14.0361C18.8266 14.0361 19.674 14.4689 19.7343 16.2106L19.3238 16.0956L18.9953 16.8044C18.8563 14.8973 18.0996 14.6207 18.0996 14.6207L18.8266 14.0361Z" fill="#98B8E6"/>
</g>
<defs>
<clipPath id="clip0_1602_3016">
<rect width="32" height="32" fill="white"/>
</clipPath>
</defs>
</svg>
