<svg xmlns="http://www.w3.org/2000/svg" xmlns:xlink="http://www.w3.org/1999/xlink"><symbol id="arrow-down" viewBox="0 0 12 12"><g fill="none"><path d="M11.454 8.18164L5.99947 3.27255L0.544922 8.18164" stroke="white"/></g></symbol><symbol id="arrow-up" viewBox="0 0 12 12"><g fill="none"><path d="M11.454 8.18164L5.99947 3.27255L0.544922 8.18164"/></g></symbol><symbol id="button-arrow" viewBox="0 0 10 10"><path d="M1 9L9 1M9 1H1.05298M9 1V8.94702"/></symbol><symbol id="checkbox-icon" viewBox="0 0 10 8"><g fill="none"><path d="M1 3.5L3.94737 7L9 1" stroke-linecap="round" stroke-linejoin="round"/></g></symbol><symbol id="icon-close" viewBox="0 0 20 20"><g fill="none"><path d="M.293 18.291a1 1 0 101.414 1.414L10 11.413l8.292 8.292a1 1 0 101.414-1.414l-8.292-8.292 8.292-8.292A1 1 0 1018.291.293L9.999 8.585 1.707.293A1 1 0 10.293 1.707L8.585 10 .293 18.291z"/></g></symbol><symbol id="logo" viewBox="0 0 52 52"><g fill="none"><rect width="52" height="52" rx="26" fill="white"/><path d="M12 39.8701V33.633H12.6763L15.5115 38.8782L18.3318 33.633H19.0181V39.8657H18.3168V35.0536L15.747 39.8701H15.2711L12.7063 35.0536V39.8701H12Z" fill="#316DC2"/><path d="M30.2848 40C29.7805 40 29.3264 39.9278 28.9223 39.7834C28.5215 39.6362 28.1892 39.4283 27.9254 39.1597C27.6649 38.8912 27.4946 38.5721 27.4145 38.2025L28.1659 38.0942C28.2861 38.4985 28.5399 38.8161 28.9273 39.0471C29.3147 39.2752 29.7772 39.3893 30.3149 39.3893C30.6689 39.3893 30.9861 39.3416 31.2666 39.2464C31.5472 39.1482 31.7676 39.0096 31.9279 38.8305C32.0882 38.6515 32.1683 38.4393 32.1683 38.1938C32.1683 38.0321 32.1349 37.895 32.0681 37.7824C32.0013 37.6669 31.9128 37.5716 31.8026 37.4965C31.6924 37.4214 31.5722 37.3593 31.442 37.3103C31.3117 37.2583 31.1848 37.2164 31.0613 37.1846L29.2329 36.7125C29.0124 36.6577 28.8087 36.5884 28.6217 36.5046C28.4347 36.418 28.2711 36.3155 28.1308 36.1971C27.9939 36.0758 27.887 35.9343 27.8102 35.7726C27.7334 35.6109 27.695 35.4261 27.695 35.2182C27.695 34.8659 27.8019 34.5613 28.0156 34.3043C28.2293 34.0473 28.5215 33.8495 28.8922 33.7109C29.2629 33.5723 29.6854 33.5045 30.1596 33.5074C30.6405 33.5074 31.0696 33.581 31.447 33.7283C31.8277 33.8755 32.1416 34.0863 32.3887 34.3606C32.6359 34.6321 32.7995 34.954 32.8796 35.3265L32.1082 35.4478C32.0581 35.1764 31.9429 34.941 31.7626 34.7418C31.5822 34.5425 31.3518 34.3895 31.0713 34.2827C30.7941 34.1729 30.4885 34.1166 30.1546 34.1137C29.8306 34.1137 29.5418 34.1614 29.288 34.2567C29.0375 34.3491 28.8388 34.4761 28.6918 34.6378C28.5449 34.7995 28.4714 34.9843 28.4714 35.1922C28.4714 35.403 28.5382 35.5719 28.6718 35.699C28.8087 35.8261 28.9757 35.9257 29.1727 35.9979C29.3731 36.0701 29.5668 36.1292 29.7538 36.1754L31.1665 36.5349C31.3134 36.5696 31.4854 36.6201 31.6824 36.6865C31.8828 36.7501 32.0765 36.8425 32.2635 36.9637C32.4538 37.0821 32.6108 37.2381 32.7344 37.4315C32.8579 37.625 32.9197 37.8704 32.9197 38.1679C32.9197 38.4566 32.8529 38.715 32.7193 38.9432C32.5891 39.1713 32.4038 39.3633 32.1633 39.5192C31.9262 39.6751 31.6473 39.7935 31.3267 39.8744C31.0095 39.9581 30.6622 40 30.2848 40Z" fill="#316DC2"/><path fill-rule="evenodd" clip-rule="evenodd" d="M23.0087 33.633L20.5241 39.8701H21.2905L21.893 38.3584H25.0974L25.7037 39.8701H26.4701L23.9855 33.633H23.0087ZM24.8576 37.7607L23.49 34.3514L22.1312 37.7607H21.6311V38.3584H21.893L22.1312 37.7607H24.8576Z" fill="#316DC2"/><path d="M21.6311 37.7607V38.3584H21.893L22.1312 37.7607H21.6311Z" fill="#316DC2"/><path fill-rule="evenodd" clip-rule="evenodd" d="M36.5386 33.633L34.0539 39.8701H34.8204L35.4229 38.3584H38.6272L39.2336 39.8701H40L37.5154 33.633H36.5386ZM38.3875 37.7607L37.0199 34.3514L35.6611 37.7607H35.161V38.3584H35.4229L35.6611 37.7607H38.3875Z" fill="#316DC2"/><path d="M35.161 37.7607V38.3584H35.4229L35.6611 37.7607H35.161Z" fill="#316DC2"/><path d="M17.8125 17.476C17.2909 17.8535 16.9851 18.6529 17.5615 19.6087C18.1378 20.5646 26.372 27.0165 26.6739 27.1957C26.9758 27.375 27.2779 27.4048 28.0461 26.7775C28.8148 26.1502 35.2362 21.2497 35.4019 21.1023C35.6656 20.8678 35.7313 20.2958 35.4019 20.0268C35.4019 20.0268 27.6225 25.941 27.3677 26.1801C27.1132 26.4191 26.7169 26.0308 26.7913 25.5231C26.866 25.0152 26.921 24.9554 27.9091 24.1788C28.8972 23.4021 34.4993 19.0889 34.7535 18.8982C35.0414 18.6821 35.0483 18.3005 34.5768 17.963C33.9214 17.4938 26.8379 12.3763 26.601 12.1971C26.3634 12.0178 26.0345 11.8549 25.5406 12.2134C25.0466 12.5718 18.7709 16.7823 17.8125 17.476Z" fill="#316DC2"/><path d="M26.6739 27.8252C26.4757 27.7075 22.8629 24.8896 20.2387 22.6955V27.2702C20.2367 30.6096 29.4981 32.3938 32.5663 28.2887V23.9163C30.6815 25.3631 28.4767 27.0556 28.0461 27.407C27.2779 28.0342 26.9758 28.0044 26.6739 27.8252Z" fill="#316DC2"/><path d="M30.593 22.8091C30.593 22.8091 31.97 23.5124 32.068 26.3426L31.4009 26.1558L30.8671 27.3076C30.6413 24.2085 29.4116 23.7591 29.4116 23.7591L30.593 22.8091Z" fill="#98B8E6"/></g></symbol><symbol id="menu-burger" viewBox="0 0 20 20"><path d="M1 6H19M1 10H19M1 14H19" stroke-linecap="round"/></symbol><symbol id="menu-close" viewBox="0 0 18 18"><path d="M1 17L9 9M9 9L17 1M9 9L17 17M9 9L1 1" stroke-linecap="round" stroke-linejoin="round"/></symbol><symbol id="modal-close" viewBox="0 0 20 20"><g fill="none"><path d="M1 19L10 10M10 10L19 1M10 10L19 19M10 10L1 1" stroke="#316DC2" stroke-linecap="round" stroke-linejoin="round"/></g></symbol><symbol id="ok" viewBox="0 0 16 16"><path d="M7.99973 2.42035C8.96186 2.42035 9.74431 3.18736 9.74431 4.1305C9.74431 5.0708 8.96186 5.83781 7.99973 5.83781C7.03761 5.83781 6.25516 5.0708 6.25516 4.1305C6.25516 3.18736 7.03761 2.42035 7.99973 2.42035ZM7.99973 8.25816C10.3239 8.25816 12.2134 6.40597 12.2134 4.1305C12.2134 1.85219 10.3239 0 7.99973 0C5.67557 0 3.78899 1.85219 3.78899 4.1305C3.78899 6.40597 5.67557 8.25816 7.99973 8.25816ZM9.70374 11.6273C10.5615 11.4342 11.3875 11.1018 12.1496 10.6331C12.7263 10.278 12.9002 9.53083 12.5379 8.96551C12.1728 8.39735 11.4135 8.22691 10.8339 8.58485C9.10965 9.6473 6.88981 9.6473 5.16263 8.58485C4.58594 8.22691 3.82377 8.39735 3.46153 8.96551C3.09928 9.53083 3.27316 10.278 3.84985 10.6331C4.61202 11.1018 5.43794 11.4342 6.29573 11.6273L3.93969 13.934C3.45863 14.4056 3.45863 15.1726 3.93969 15.6442C4.18312 15.88 4.4961 15.9993 4.81198 15.9993C5.12785 15.9993 5.44373 15.88 5.68716 15.6442L7.99973 13.3772L10.3152 15.6442C10.7963 16.1186 11.5758 16.1186 12.0598 15.6442C12.5408 15.1726 12.5408 14.4056 12.0598 13.934L9.70374 11.6273Z"/></symbol><symbol id="reddit" viewBox="0 0 16 16"><path d="M9.41503 0.363525C8.9486 0.363525 8.51091 0.611969 8.23017 0.97025C7.94942 1.32853 7.79468 1.76527 7.68195 2.22554C7.50289 2.96564 7.44763 3.78681 7.43436 4.52691C6.1235 4.61844 4.93642 5.02641 3.95051 5.65668C3.5504 5.30363 3.0685 5.10749 2.60649 5.11272C2.08038 5.11795 1.58079 5.35593 1.20941 5.84497C0.499822 6.77859 0.581612 8.30587 1.40394 9.21334C1.3531 9.49316 1.31552 9.78084 1.31552 10.0711C1.31552 13.1466 4.30862 15.6363 8.00027 15.6363C11.6919 15.6363 14.685 13.144 14.685 10.0711C14.685 9.78084 14.6474 9.49316 14.5966 9.21334C15.4189 8.30587 15.5007 6.77859 14.7911 5.84497C14.4197 5.35593 13.9202 5.11795 13.394 5.11272C12.932 5.10749 12.4501 5.30363 12.05 5.65668C11.0685 5.02903 9.88809 4.62106 8.58386 4.52691C8.60154 3.84435 8.64796 3.13563 8.77839 2.60213C8.86018 2.26739 8.95744 2.02417 9.06134 1.8908C9.16523 1.75742 9.24039 1.7025 9.41503 1.7025C9.79303 1.7025 9.84167 1.83065 10.0694 2.14186C10.1843 2.29877 10.3169 2.49491 10.5292 2.68582C10.7414 2.87673 11.0553 3.04148 11.3957 3.04148V1.7025C11.3006 1.7025 11.283 1.69989 11.2188 1.63974C11.1547 1.57959 11.0663 1.44098 10.9359 1.26315C10.6751 0.904871 10.1688 0.363525 9.41503 0.363525ZM13.0934 0.489055C12.2136 0.489055 11.5018 1.33115 11.5018 2.37199C11.5018 3.41284 12.2136 4.25493 13.0934 4.25493C13.9732 4.25493 14.685 3.41284 14.685 2.37199C14.685 1.33115 13.9732 0.489055 13.0934 0.489055ZM13.0934 1.15854C13.6593 1.15854 14.1191 1.7025 14.1191 2.37199C14.1191 3.04148 13.6593 3.58544 13.0934 3.58544C12.5275 3.58544 12.0677 3.04148 12.0677 2.37199C12.0677 1.7025 12.5275 1.15854 13.0934 1.15854ZM8.00027 5.57299C11.1326 5.57299 13.7831 7.63638 13.7831 10.0711C13.7831 12.5085 11.1326 14.5693 8.00027 14.5693C4.8679 14.5693 2.21743 12.5085 2.21743 10.0711C2.21743 7.63638 4.8679 5.57299 8.00027 5.57299ZM2.62417 6.17971C2.78112 6.18233 2.94471 6.22417 3.10166 6.30524C2.53354 6.81521 2.08259 7.40101 1.77532 8.06265C1.5631 7.54485 1.62058 6.89889 1.88142 6.5563C2.07153 6.30524 2.33459 6.1771 2.62417 6.17971ZM13.3764 6.17971C13.6659 6.1771 13.929 6.30524 14.1191 6.5563C14.38 6.89889 14.4374 7.54485 14.2252 8.06265C13.9179 7.40101 13.467 6.81521 12.8989 6.30524C13.0558 6.22417 13.2194 6.18233 13.3764 6.17971ZM5.73665 7.85344C5.17074 7.85344 4.71095 8.3974 4.71095 9.06689C4.71095 9.73638 5.17074 10.2803 5.73665 10.2803C6.30255 10.2803 6.76235 9.73638 6.76235 9.06689C6.76235 8.3974 6.30255 7.85344 5.73665 7.85344ZM10.2639 7.85344C9.69798 7.85344 9.23818 8.3974 9.23818 9.06689C9.23818 9.73638 9.69798 10.2803 10.2639 10.2803C10.8298 10.2803 11.2896 9.73638 11.2896 9.06689C11.2896 8.3974 10.8298 7.85344 10.2639 7.85344ZM5.18843 11.975C5.54875 12.8563 6.66288 13.7115 8.00027 13.7115C9.33766 13.7115 10.4695 12.8563 10.8298 11.975C10.1755 12.4745 9.14313 12.8118 8.00027 12.8118C6.8574 12.8118 5.84276 12.4745 5.18843 11.975Z"/></symbol><symbol id="swiper-arrow" viewBox="0 0 22 22"><g fill="none"><path d="M6 10.6875H16M16 10.6875L11.0331 16M16 10.6875L11.0331 6"/></g></symbol><symbol id="vk" viewBox="0 0 16 16"><path d="M15.8574 11.4207C15.8144 11.3518 15.5484 10.7992 14.2683 9.66345C12.9282 8.47413 13.1082 8.66725 14.7223 6.6108C15.7054 5.35839 16.0984 4.59355 15.9754 4.26659C15.8584 3.95492 15.1353 4.03714 15.1353 4.03714L12.7312 4.05052C12.7312 4.05052 12.5531 4.02758 12.4201 4.1031C12.2911 4.17768 12.2081 4.34976 12.2081 4.34976C12.2081 4.34976 11.8271 5.31919 11.3191 6.1433C10.248 7.88234 9.81894 7.97412 9.64393 7.86609C9.2369 7.61465 9.33891 6.85459 9.33891 6.31539C9.33891 4.62988 9.60593 3.92719 8.81787 3.74554C8.55585 3.68531 8.36384 3.64516 7.69479 3.63847C6.83672 3.62986 6.10967 3.64134 5.69864 3.8335C5.42462 3.96161 5.21361 4.24747 5.34262 4.26372C5.50163 4.2838 5.86165 4.35646 6.05267 4.60503C6.29969 4.9253 6.29069 5.64616 6.29069 5.64616C6.29069 5.64616 6.4327 7.62994 5.95966 7.8766C5.63464 8.04582 5.1896 7.70069 4.23453 6.12227C3.7455 5.31441 3.37547 4.42051 3.37547 4.42051C3.37547 4.42051 3.30447 4.25416 3.17746 4.16525C3.02345 4.05721 2.80743 4.0228 2.80743 4.0228L0.521262 4.03618C0.521262 4.03618 0.178236 4.04574 0.0522271 4.18819C-0.0597811 4.31535 0.0432264 4.5773 0.0432264 4.5773C0.0432264 4.5773 1.83336 8.58025 3.85951 10.5985C5.71864 12.4484 7.8288 12.327 7.8288 12.327H8.78487C8.78487 12.327 9.07389 12.2964 9.2209 12.1444C9.35691 12.0048 9.35191 11.7428 9.35191 11.7428C9.35191 11.7428 9.33291 10.5162 9.92895 10.3355C10.516 10.1577 11.2701 11.521 12.0691 12.0459C12.6732 12.4427 13.1322 12.3557 13.1322 12.3557L15.2693 12.327C15.2693 12.327 16.3874 12.261 15.8574 11.4207Z"/></symbol></svg>